<svg width="48" height="48" viewBox="0 0 48 48" fill="none" xmlns="http://www.w3.org/2000/svg">
<g clip-path="url(#clip0_10_12)">
<g filter="url(#filter0_d_10_12)">
<path d="M43.3333 24C43.3333 25.0733 43.2467 26.1267 43.0733 27.1533C42.6 30.08 41.46 32.7867 39.8133 35.1133V35.12C36.9867 39.14 32.66 42.0333 27.6533 42.9867C26.1228 43.2789 24.5628 43.3863 23.0067 43.3067H22.96C22.6467 43.2867 22.3333 43.2667 22.02 43.2333C21.9933 43.2333 21.9667 43.2267 21.94 43.2267C21.68 43.2 21.42 43.1667 21.16 43.1267C21.0867 43.1133 21.0067 43.1067 20.9333 43.0933C20.7333 43.06 20.54 43.0267 20.34 42.9867C20.0267 42.9267 19.7133 42.86 19.4 42.78C19.2733 42.7533 19.14 42.72 19.0133 42.6867C18.84 42.64 18.6667 42.5867 18.4933 42.5333C18.34 42.4867 18.18 42.44 18.02 42.3867C17.8621 42.3406 17.7063 42.2872 17.5533 42.2267L17.1733 42.0867C17.1 42.0667 17.0333 42.04 16.96 42.0067C16.3472 41.7622 15.7466 41.4886 15.16 41.1867C15.0067 41.1067 14.86 41.0267 14.7067 40.94C14.5333 40.8467 14.3667 40.7533 14.2 40.6533C14.0133 40.54 13.8267 40.4333 13.64 40.3133C13.5867 40.28 13.5333 40.24 13.48 40.2067C13.22 40.04 12.96 39.86 12.7133 39.68C12.5 39.5333 12.2933 39.3733 12.0933 39.22C12.0739 39.2064 12.0561 39.1907 12.04 39.1733C11.86 39.0333 11.6867 38.8933 11.52 38.7467C11.4333 38.68 11.3467 38.6067 11.2667 38.5333L11.0733 38.36C11.06 38.3533 11.0533 38.3467 11.0467 38.34C11.0267 38.32 11.0067 38.3 10.9867 38.2867C10.9733 38.28 10.9667 38.2667 10.96 38.26C10.9482 38.2547 10.9387 38.2452 10.9333 38.2333C10.848 38.1613 10.7657 38.0856 10.6867 38.0067C10.6 37.9267 10.52 37.8533 10.4467 37.7733C10.4333 37.76 10.42 37.7467 10.4133 37.7333C10.3467 37.6667 10.28 37.6067 10.2133 37.5467C10.112 37.4453 10.0187 37.332 9.91999 37.2267L9.90666 37.2133L9.90799 37.214C9.68532 36.978 9.46132 36.744 9.24666 36.4933C9.08666 36.3067 8.92666 36.1133 8.77332 35.9133C6.75551 33.3423 5.4249 30.3003 4.90666 27.0733C4.74666 26.0733 4.66666 25.0467 4.66666 24C4.66666 19.8867 5.94666 16.0733 8.14666 12.94C10.2733 9.88667 13.2667 7.48 16.7667 6.07333C19 5.16 21.44 4.66667 24 4.66667C26.5533 4.66667 28.9933 5.16 31.22 6.06667C32.9 6.73333 34.46 7.64 35.8667 8.74667C36.24 9.03333 36.6067 9.34 36.96 9.66667H36.9667C37.32 9.98667 37.66 10.32 37.9867 10.6667C38.4867 11.18 38.9467 11.72 39.38 12.2933C39.52 12.48 39.6667 12.6733 39.8 12.8667V12.8733C39.8 12.8733 39.8 12.8667 39.8067 12.8733C40.14 13.3333 40.4533 13.82 40.7333 14.32C40.8333 14.4867 40.9267 14.6533 41.02 14.8267C41.1333 15.0333 41.24 15.2333 41.3333 15.44C41.4067 15.58 41.4733 15.72 41.54 15.8667C41.6467 16.08 41.74 16.2933 41.8267 16.5067C41.9333 16.7467 42.0267 16.9867 42.1133 17.2333C42.1867 17.42 42.2533 17.6067 42.3133 17.8C42.3667 17.9533 42.42 18.1133 42.4733 18.28C42.54 18.4933 42.6 18.7067 42.66 18.92C42.7 19.0733 42.74 19.22 42.7733 19.3733C42.8933 19.8467 42.9933 20.32 43.0667 20.8067C43.0933 20.9467 43.1133 21.0867 43.1333 21.2333C43.1667 21.4467 43.1933 21.6667 43.2133 21.88C43.2267 21.9733 43.24 22.0667 43.2467 22.1533C43.2667 22.3867 43.2867 22.62 43.2933 22.86C43.3067 22.96 43.3133 23.0533 43.3133 23.1533C43.3267 23.4333 43.3333 23.7133 43.3333 24Z" fill="white"/>
</g>
<path d="M43.3333 24C43.3333 25.0733 43.2467 26.1267 43.0733 27.1533C42.6 30.08 41.46 32.7867 39.8133 35.1133V35.12C36.9867 39.14 32.66 42.0333 27.6533 42.9867C26.1228 43.2789 24.5628 43.3863 23.0067 43.3067H22.96C22.6467 43.2867 22.3333 43.2667 22.02 43.2333C21.9933 43.2333 21.9667 43.2267 21.94 43.2267C21.68 43.2 21.42 43.1667 21.16 43.1267C21.0867 43.1133 21.0067 43.1067 20.9333 43.0933C20.7333 43.06 20.54 43.0267 20.34 42.9867C20.0267 42.9267 19.7133 42.86 19.4 42.78C19.2733 42.7533 19.14 42.72 19.0133 42.6867C18.84 42.64 18.6667 42.5867 18.4933 42.5333C18.34 42.4867 18.18 42.44 18.02 42.3867C17.8621 42.3406 17.7063 42.2872 17.5533 42.2267L17.1733 42.0867C17.1 42.0667 17.0333 42.04 16.96 42.0067C16.7 41.9 16.44 41.7933 16.1867 41.68C16.0133 41.6 15.84 41.52 15.6733 41.44C15.5 41.36 15.3333 41.2733 15.16 41.1867C15.0067 41.1067 14.86 41.0267 14.7067 40.94C14.5333 40.8467 14.3667 40.7533 14.2 40.6533C14.0133 40.54 13.8267 40.4333 13.64 40.3133C13.5867 40.28 13.5333 40.24 13.48 40.2067C13.22 40.04 12.96 39.86 12.7133 39.68C12.5 39.5333 12.2933 39.3733 12.0933 39.22C12.074 39.2064 12.0561 39.1907 12.04 39.1733C11.86 39.0333 11.6867 38.8933 11.52 38.7467C11.3315 38.5866 11.1448 38.4244 10.96 38.26C10.9482 38.2547 10.9387 38.2452 10.9333 38.2333C10.76 38.0667 10.58 37.9067 10.4133 37.7333C10.24 37.56 10.0733 37.3867 9.90668 37.2133C12.5667 38.7733 15.64 39.7267 18.92 39.8467C19.1733 39.86 19.4267 39.8667 19.68 39.8667C24.1867 39.8667 28.34 38.3267 31.6267 35.7333C35.62 32.5933 38.3467 27.9133 38.9067 22.5867C38.98 21.9133 39.0133 21.2267 39.0133 20.5333C39.0133 19.1533 38.8667 17.8133 38.5933 16.52V16.5133C37.8664 13.0855 36.2184 9.92089 33.8267 7.36C34.5333 7.78 35.22 8.24667 35.8667 8.74667C36.24 9.04 36.6067 9.34667 36.96 9.66667C36.96 9.66667 36.96 9.66 36.9667 9.66667C37.32 9.99333 37.66 10.32 37.9867 10.6667C38.64 11.3533 39.2533 12.0933 39.8 12.8733C40.1333 13.34 40.4467 13.82 40.7333 14.32C40.8333 14.4867 40.9267 14.6533 41.02 14.8267C41.1333 15.0333 41.24 15.2333 41.3333 15.44C41.4067 15.58 41.4733 15.72 41.54 15.8667C41.6467 16.08 41.74 16.2933 41.8267 16.5067C41.9333 16.7467 42.0267 16.9867 42.1133 17.2333C42.1867 17.42 42.2533 17.6067 42.3133 17.8C42.3667 17.9533 42.42 18.1133 42.4733 18.28C42.54 18.4933 42.6 18.7067 42.66 18.92C42.7 19.0733 42.74 19.22 42.7733 19.3733C42.8933 19.8467 42.9933 20.32 43.0667 20.8067C43.0933 20.9467 43.1133 21.0867 43.1333 21.2333C43.1667 21.4467 43.1933 21.6667 43.2133 21.88C43.2267 21.9733 43.24 22.0667 43.2467 22.1533C43.2667 22.3867 43.2867 22.62 43.2933 22.86C43.3067 22.96 43.3133 23.0533 43.3133 23.1533C43.3267 23.4333 43.3333 23.7133 43.3333 24Z" fill="#D0CFCE"/>
<path d="M43.3333 24C43.3333 25.0733 43.2467 26.1267 43.0733 27.1533C42.6 30.08 41.46 32.7867 39.8133 35.1133V35.12C36.9867 39.14 32.66 42.0333 27.6533 42.9867C26.1228 43.2789 24.5628 43.3863 23.0067 43.3067H22.96C22.6467 43.2867 22.3333 43.2667 22.02 43.2333C21.9933 43.2333 21.9667 43.2267 21.94 43.2267C21.68 43.2 21.42 43.1667 21.16 43.1267C21.0867 43.1133 21.0067 43.1067 20.9333 43.0933C20.7333 43.06 20.54 43.0267 20.34 42.9867C20.0267 42.9267 19.7133 42.86 19.4 42.78C19.2733 42.7533 19.14 42.72 19.0133 42.6867C18.84 42.64 18.6667 42.5867 18.4933 42.5333C18.34 42.4867 18.18 42.44 18.02 42.3867C17.8621 42.3406 17.7063 42.2872 17.5533 42.2267L17.1733 42.0867C17.1 42.0667 17.0333 42.04 16.96 42.0067C16.3472 41.7622 15.7466 41.4886 15.16 41.1867C15.0067 41.1067 14.86 41.0267 14.7067 40.94C14.5333 40.8467 14.3667 40.7533 14.2 40.6533C14.0133 40.54 13.8267 40.4333 13.64 40.3133C13.5867 40.28 13.5333 40.24 13.48 40.2067C13.22 40.04 12.96 39.86 12.7133 39.68C12.5 39.5333 12.2933 39.3733 12.0933 39.22C12.0739 39.2064 12.0561 39.1907 12.04 39.1733C11.86 39.0333 11.6867 38.8933 11.52 38.7467C11.4333 38.68 11.3467 38.6067 11.2667 38.5333L11.0733 38.36C11.06 38.3533 11.0533 38.3467 11.0467 38.34C11.0267 38.32 11.0067 38.3 10.9867 38.2867C10.9733 38.28 10.9667 38.2667 10.96 38.26C10.9482 38.2547 10.9387 38.2452 10.9333 38.2333C10.848 38.1613 10.7657 38.0856 10.6867 38.0067C10.6 37.9267 10.52 37.8533 10.4467 37.7733C10.4333 37.76 10.42 37.7467 10.4133 37.7333C10.3467 37.6667 10.28 37.6067 10.2133 37.5467C10.112 37.4453 10.0187 37.332 9.91999 37.2267L9.90666 37.2133L9.90799 37.214C9.68532 36.978 9.46132 36.744 9.24666 36.4933C9.08666 36.3067 8.92666 36.1133 8.77332 35.9133C6.75551 33.3423 5.4249 30.3003 4.90666 27.0733C4.74666 26.0733 4.66666 25.0467 4.66666 24C4.66666 19.8867 5.94666 16.0733 8.14666 12.94C10.2733 9.88667 13.2667 7.48 16.7667 6.07333C19 5.16 21.44 4.66667 24 4.66667C26.5533 4.66667 28.9933 5.16 31.22 6.06667C32.9 6.73333 34.46 7.64 35.8667 8.74667C36.24 9.03333 36.6067 9.34 36.96 9.66667H36.9667C37.32 9.98667 37.66 10.32 37.9867 10.6667C38.4867 11.18 38.9467 11.72 39.38 12.2933C39.52 12.48 39.6667 12.6733 39.8 12.8667V12.8733C39.8 12.8733 39.8 12.8667 39.8067 12.8733C40.14 13.3333 40.4533 13.82 40.7333 14.32C40.8333 14.4867 40.9267 14.6533 41.02 14.8267C41.1333 15.0333 41.24 15.2333 41.3333 15.44C41.4067 15.58 41.4733 15.72 41.54 15.8667C41.6467 16.08 41.74 16.2933 41.8267 16.5067C41.9333 16.7467 42.0267 16.9867 42.1133 17.2333C42.1867 17.42 42.2533 17.6067 42.3133 17.8C42.3667 17.9533 42.42 18.1133 42.4733 18.28C42.54 18.4933 42.6 18.7067 42.66 18.92C42.7 19.0733 42.74 19.22 42.7733 19.3733C42.8933 19.8467 42.9933 20.32 43.0667 20.8067C43.0933 20.9467 43.1133 21.0867 43.1333 21.2333C43.1667 21.4467 43.1933 21.6667 43.2133 21.88C43.2267 21.9733 43.24 22.0667 43.2467 22.1533C43.2667 22.3867 43.2867 22.62 43.2933 22.86C43.3067 22.96 43.3133 23.0533 43.3133 23.1533C43.3267 23.4333 43.3333 23.7133 43.3333 24Z" stroke="black" stroke-width="2" stroke-miterlimit="10" stroke-linecap="round" stroke-linejoin="round"/>
<path d="M22.8247 18.7153L18.7207 21.6967C18.379 21.9449 18.1246 22.2949 17.9941 22.6966C17.8635 23.0983 17.8635 23.531 17.994 23.9327L19.562 28.7567C19.6925 29.1583 19.9468 29.5084 20.2885 29.7567C20.6302 30.0049 21.0416 30.1386 21.464 30.1387H26.536C26.9584 30.1388 27.3701 30.0051 27.7119 29.7569C28.0537 29.5086 28.3081 29.1585 28.4387 28.7567L30.0053 23.9327C30.1358 23.531 30.1358 23.0983 30.0052 22.6966C29.8747 22.2949 29.6204 21.9449 29.2787 21.6967L25.1753 18.7153C24.8337 18.4672 24.4222 18.3335 24 18.3335C23.5777 18.3335 23.1663 18.4672 22.8247 18.7153ZM30.8533 6.78667L25.2467 9.53333C24.8533 9.72 24.4267 9.81333 24 9.80667C23.62 9.8 23.24 9.71333 22.88 9.54667L17.14 6.81333C16.86 6.68 16.7133 6.36667 16.7667 6.07333C19 5.16 21.44 4.66667 24 4.66667C26.5533 4.66667 28.9933 5.16 31.22 6.06667C31.2733 6.35333 31.1333 6.65333 30.8533 6.78667ZM20.34 42.9867C20.0267 42.9267 19.7133 42.86 19.4 42.78C19.2733 42.7533 19.14 42.72 19.0133 42.6867C18.84 42.64 18.6667 42.5867 18.4933 42.5333C18.34 42.4867 18.18 42.44 18.02 42.3867C17.8621 42.3406 17.7063 42.2872 17.5533 42.2267L17.1733 42.0867C17.1 42.0667 17.0333 42.04 16.96 42.0067C16.7 41.9 16.44 41.7933 16.1867 41.68C15.8387 41.5267 15.498 41.36 15.1607 41.186C15.0082 41.1069 14.8569 41.0256 14.7067 40.942C14.5355 40.8487 14.3667 40.7524 14.2 40.6533C14.0114 40.5436 13.8247 40.4307 13.64 40.3147L13.4787 40.2073C11.3903 38.8567 9.58211 37.1157 8.15332 35.08C8.27999 34.8533 8.53999 34.7133 8.82666 34.7467L15.0533 35.5067C15.48 35.56 15.88 35.7067 16.2267 35.94C16.5533 36.16 16.8333 36.4467 17.04 36.7867L18.92 39.8467L20.38 42.2333C20.5267 42.4733 20.5067 42.7733 20.34 42.9867ZM10.1067 20.9133C10.0104 21.3049 9.83077 21.671 9.57999 21.9867L5.64666 26.8533C5.45999 27.08 5.15999 27.16 4.90666 27.0733C4.74666 26.0733 4.66666 25.0467 4.66666 24C4.66666 19.8867 5.94666 16.0733 8.14666 12.94C8.42666 12.9733 8.67332 13.1733 8.73332 13.4667L10.12 19.6867C10.2133 20.0933 10.2067 20.5133 10.1067 20.9133ZM39.8133 35.1133V35.12C36.9867 39.14 32.66 42.0333 27.6533 42.9867C27.48 42.7733 27.46 42.4667 27.6067 42.22L30.9333 36.7933C31.1476 36.4449 31.4373 36.1491 31.7812 35.9275C32.125 35.706 32.5142 35.5645 32.92 35.5133L39.1267 34.7533C39.42 34.72 39.6867 34.8733 39.8133 35.1133ZM43.3333 24C43.3333 25.0733 43.2467 26.1267 43.0733 27.1533C42.9515 27.1808 42.8244 27.1735 42.7065 27.1322C42.5887 27.091 42.4848 27.0174 42.4067 26.92L38.9067 22.5867L38.42 21.9867C38.1623 21.669 37.9803 21.2967 37.8879 20.8982C37.7955 20.4997 37.795 20.0854 37.8867 19.6867L38.5933 16.52V16.5133L39.2867 13.3867C39.34 13.1267 39.5467 12.9267 39.8 12.8733C39.8 12.8667 39.8 12.8667 39.8067 12.8733C40.14 13.3333 40.4533 13.82 40.7333 14.32C40.8333 14.4867 40.9267 14.6533 41.02 14.8267C41.1333 15.0333 41.24 15.2333 41.3333 15.44C41.4067 15.58 41.4733 15.72 41.54 15.8667C41.6467 16.08 41.74 16.2933 41.8267 16.5067C41.9333 16.7467 42.0267 16.9867 42.1133 17.2333C42.1867 17.42 42.2533 17.6067 42.3133 17.8C42.3667 17.9533 42.42 18.1133 42.4733 18.28C42.54 18.4933 42.6 18.7067 42.66 18.92C42.7 19.0733 42.74 19.22 42.7733 19.3733C42.8933 19.8467 42.9933 20.32 43.0667 20.8067C43.0933 20.9467 43.1133 21.0867 43.1333 21.2333C43.1667 21.4467 43.1933 21.6667 43.2133 21.88C43.2267 21.9733 43.24 22.0667 43.2467 22.1533C43.2667 22.3867 43.2867 22.62 43.2933 22.86C43.3067 22.96 43.3133 23.0533 43.3133 23.1533C43.3267 23.4333 43.3333 23.7133 43.3333 24Z" fill="black"/>
<path d="M24 9.808V18.3333M29.9927 22.66L37.8753 20.8847M27.7273 29.7447L31.7587 35.942M20.2627 29.7373L16.2287 35.942M18.0007 22.6793L10.1093 20.9153" stroke="black" stroke-width="2" stroke-miterlimit="10" stroke-linecap="round" stroke-linejoin="round"/>
</g>
<defs>
<filter id="filter0_d_10_12" x="4.66666" y="4.66667" width="46.6667" height="46.6655" filterUnits="userSpaceOnUse" color-interpolation-filters="sRGB">
<feFlood flood-opacity="0" result="BackgroundImageFix"/>
<feColorMatrix in="SourceAlpha" type="matrix" values="0 0 0 0 0 0 0 0 0 0 0 0 0 0 0 0 0 0 127 0" result="hardAlpha"/>
<feOffset dx="4" dy="4"/>
<feGaussianBlur stdDeviation="2"/>
<feComposite in2="hardAlpha" operator="out"/>
<feColorMatrix type="matrix" values="0 0 0 0 0 0 0 0 0 0 0 0 0 0 0 0 0 0 0.25 0"/>
<feBlend mode="normal" in2="BackgroundImageFix" result="effect1_dropShadow_10_12"/>
<feBlend mode="normal" in="SourceGraphic" in2="effect1_dropShadow_10_12" result="shape"/>
</filter>
<clipPath id="clip0_10_12">
<rect width="48" height="48" fill="white"/>
</clipPath>
</defs>
</svg>
